<?xml version="1.0" encoding="UTF-8"?>
<svg id="Layer_1" data-name="Layer 1" xmlns="http://www.w3.org/2000/svg" xmlns:xlink="http://www.w3.org/1999/xlink" viewBox="0 0 400 400">
  <defs>
    <style>
      .cls-1 {
        fill: #a7dcdf;
      }

      .cls-2 {
        fill: url(#linear-gradient);
      }

      .cls-3 {
        fill: #21555d;
      }
    </style>
    <linearGradient id="linear-gradient" x1="94.02" y1="163.91" x2="278.64" y2="163.91" gradientUnits="userSpaceOnUse">
      <stop offset="0" stop-color="#8fd4d8"/>
      <stop offset=".25" stop-color="#94d5d9"/>
      <stop offset=".57" stop-color="#a3d9dc"/>
      <stop offset=".91" stop-color="#bcdfe2"/>
      <stop offset="1" stop-color="#c4e2e4"/>
    </linearGradient>
  </defs>
  <rect class="cls-3" width="400" height="400"/>
  <path class="cls-1" d="m86.8,268.71c-.87-1.4-1.97-2.43-3.32-3.09-1.35-.66-3.43-.98-6.23-.98h-2.95l-2.56,18.72h5.81c2.45,0,4.35-.34,5.74-1.08,1.37-.73,2.52-1.88,3.41-3.48.92-1.58,1.35-3.32,1.35-5.2s-.41-3.48-1.26-4.9Zm-3.34,8.77c-.69,1.03-1.58,1.74-2.7,2.17-.8.3-2.08.43-3.87.43h-1.17l1.67-12.15h.87c1.44,0,2.61.23,3.48.69.87.43,1.53,1.1,2.01,1.92.48.85.71,1.88.71,3.11,0,1.51-.32,2.79-1.01,3.82Z"/>
  <path class="cls-1" d="m93.51,264.63l-2.56,18.72h3.39l2.61-18.72h-3.43Z"/>
  <path class="cls-1" d="m109.32,273.72l-.43,3.32h5.84c-.62,1.17-1.44,2.06-2.43,2.63-.98.6-2.08.87-3.3.87-1.63,0-2.98-.55-4.1-1.69-1.1-1.12-1.65-2.52-1.65-4.19s.53-3.23,1.6-4.6c1.37-1.74,3.14-2.61,5.29-2.61,1.01,0,1.9.18,2.7.55.78.39,1.6,1.05,2.45,2.04l2.93-1.9c-.73-.94-1.51-1.67-2.31-2.24-.8-.55-1.72-.96-2.72-1.28-.98-.3-2.01-.46-3.07-.46-2.84,0-5.29,1.03-7.35,3.11-2.04,2.06-3.07,4.53-3.07,7.37,0,2.33.71,4.35,2.11,6.04,1.74,2.11,4.12,3.16,7.16,3.16,2.79,0,5.1-.92,6.91-2.72,1.79-1.83,2.77-4.28,2.91-7.39h-9.48Z"/>
  <path class="cls-1" d="m124.91,264.63l-2.56,18.72h3.39l2.61-18.72h-3.43Z"/>
  <path class="cls-1" d="m131.02,264.63l-.43,3.32h4.05l-2.11,15.4h3.5l2.11-15.4h3.91l.39-3.32h-11.42Z"/>
  <path class="cls-1" d="m154.84,264.63h-2.98l-10.12,18.72h3.78l2.13-3.98,1.79-3.32,3.3-6.16,2.36,9.48.98,3.98h3.43l-4.67-18.72Z"/>
  <path class="cls-1" d="m167.32,280.15l2.15-15.52h-3.55l-2.56,18.72h9.36l.41-3.2h-5.81Z"/>
  <path class="cls-1" d="m193.61,274.45c-.23-.32-.71-.87-1.44-1.65-1.37-1.44-2.2-2.38-2.47-2.82-.27-.43-.41-.8-.41-1.17s.16-.69.46-.96c.3-.25.66-.39,1.12-.39.92,0,1.88.66,2.93,2.04l2.56-2.27c-1.49-2.06-3.34-3.09-5.56-3.09-1.6,0-2.88.57-3.84,1.72-.76.92-1.12,1.97-1.12,3.11,0,.87.25,1.76.78,2.68.39.66,1.21,1.67,2.45,2.98,1.19,1.26,1.9,2.11,2.15,2.54.25.46.39.89.39,1.33,0,.55-.21,1.03-.62,1.42-.41.39-.94.6-1.53.6-1.26,0-2.45-.82-3.52-2.49l-2.7,2.17c1.6,2.43,3.68,3.64,6.23,3.64,1.67,0,3.04-.5,4.12-1.53,1.08-1.01,1.6-2.27,1.6-3.78,0-.66-.11-1.33-.37-1.99-.23-.64-.64-1.35-1.19-2.08Z"/>
  <path class="cls-1" d="m216.48,266.65c-1.67-1.67-3.8-2.49-6.36-2.49-3.3,0-6.02,1.17-8.15,3.52-1.9,2.11-2.84,4.62-2.84,7.55,0,2.59.78,4.65,2.38,6.23s3.73,2.38,6.39,2.38c2.13,0,4.03-.46,5.65-1.4,1.65-.92,2.98-2.24,3.96-3.98.98-1.72,1.49-3.57,1.49-5.52,0-2.54-.85-4.65-2.52-6.29Zm-3.18,11.74c-1.42,1.44-3.16,2.15-5.22,2.15-1.76,0-3.11-.53-4.05-1.6-.94-1.05-1.42-2.36-1.42-3.91,0-1.28.34-2.54,1.03-3.78.66-1.21,1.56-2.15,2.68-2.79,1.1-.64,2.33-.98,3.66-.98,1.65,0,2.95.53,3.96,1.56s1.51,2.38,1.51,4.1c0,2.06-.71,3.82-2.15,5.26Z"/>
  <path class="cls-1" d="m225.95,280.15l2.15-15.52h-3.55l-2.56,18.72h9.36l.41-3.2h-5.81Z"/>
  <path class="cls-1" d="m246.14,264.63l-1.56,11.33c-.21,1.53-.43,2.54-.64,3.07-.23.5-.53.87-.92,1.1-.5.3-1.08.46-1.76.46-.82,0-1.46-.21-1.9-.59-.43-.41-.66-.96-.66-1.65,0-.43.07-1.14.21-2.15l1.58-11.56h-3.5l-1.42,10.32c-.21,1.46-.3,2.56-.3,3.32,0,1.72.53,3.07,1.56,4.07,1.05.98,2.49,1.49,4.37,1.49,1.4,0,2.56-.25,3.52-.78.96-.53,1.69-1.28,2.22-2.29.5-1.01.92-2.65,1.24-4.97l1.51-11.17h-3.55Z"/>
  <path class="cls-1" d="m252.46,264.63l-.43,3.32h4.07l-2.11,15.4h3.48l2.11-15.4h3.91l.41-3.32h-11.44Z"/>
  <path class="cls-1" d="m266.81,264.63l-2.56,18.72h3.36l2.63-18.72h-3.43Z"/>
  <path class="cls-1" d="m290.31,266.65c-1.69-1.67-3.8-2.49-6.39-2.49-3.3,0-6.02,1.17-8.12,3.52-1.92,2.11-2.86,4.62-2.86,7.55,0,2.59.8,4.65,2.38,6.23,1.6,1.58,3.73,2.38,6.39,2.38,2.15,0,4.03-.46,5.68-1.4,1.65-.92,2.95-2.24,3.94-3.98,1.01-1.72,1.49-3.57,1.49-5.52,0-2.54-.82-4.65-2.49-6.29Zm-3.18,11.74c-1.44,1.44-3.18,2.15-5.22,2.15-1.76,0-3.14-.53-4.07-1.6-.94-1.05-1.42-2.36-1.42-3.91,0-1.28.34-2.54,1.03-3.78.69-1.21,1.58-2.15,2.68-2.79,1.12-.64,2.33-.98,3.68-.98,1.63,0,2.95.53,3.96,1.56.98,1.03,1.49,2.38,1.49,4.1,0,2.06-.71,3.82-2.13,5.26Z"/>
  <path class="cls-1" d="m309.9,264.63l-1.74,12.73-6.75-12.73h-3.07l-2.54,18.72h3.36l1.76-12.86,6.87,12.86h3l2.54-18.72h-3.43Z"/>
  <path class="cls-1" d="m325.49,274.45c-.23-.32-.71-.87-1.44-1.65-1.37-1.44-2.2-2.38-2.45-2.82-.27-.43-.41-.8-.41-1.17s.14-.69.43-.96c.3-.25.66-.39,1.12-.39.92,0,1.9.66,2.95,2.04l2.56-2.27c-1.51-2.06-3.36-3.09-5.58-3.09-1.6,0-2.88.57-3.84,1.72-.76.92-1.12,1.97-1.12,3.11,0,.87.25,1.76.78,2.68.39.66,1.21,1.67,2.47,2.98,1.17,1.26,1.9,2.11,2.13,2.54.25.46.39.89.39,1.33,0,.55-.21,1.03-.62,1.42-.41.39-.92.6-1.53.6-1.26,0-2.43-.82-3.52-2.49l-2.7,2.17c1.6,2.43,3.68,3.64,6.23,3.64,1.67,0,3.04-.5,4.12-1.53,1.08-1.01,1.6-2.27,1.6-3.78,0-.66-.11-1.33-.37-1.99-.23-.64-.64-1.35-1.19-2.08Z"/>
  <path class="cls-2" d="m278.38,136.16c-.06.8-.12,1.6-.2,2.41-.22,2.38-.49,4.79-.76,7.19-.48,4.22-1.22,8.31-2.19,12.21-.68,3.27-1.63,6.33-2.78,9.06-1.3,3.06-2.86,5.71-4.59,7.82-.21.26-.42.51-.64.75-.28.32-.57.62-.86.9-.83.82-1.68,1.51-2.56,2.07-.8.51-1.61.91-2.44,1.19h0c-.06.02-.13.04-.19.06,0,0-.01,0-.02,0-2.38.91-5.17,1.47-8.2,1.62,0,0,0,0,0,0-1.72.08-3.51.02-5.35-.19,0,0-.53-.08-1.49-.2h-.02c-1.92-.25-3.81-.69-5.63-1.35-8.27-2.98-25.27-14.3-34.85-33.39-10.34-20.61-19.37-21.16-19.37-21.16,0,0,.09.8.04,2.08-.43,13.07-3.63,35.19-18.68,52.18,17.91-3.42,33.21-4.04,39.63-4.14,1.44,1.57,3.25,3.25,5.5,4.95-57.37,2.56-92.51,19.38-108.49,29.3-.03.02-.06.03-.09.05-6.53,4.06-9.84,6.95-10.12,7.2h0c1.48-1.84,3.05-3.59,4.69-5.26.02-.01.03-.03.04-.04,2.82-2.84,5.99-5.55,9.48-8.13,8.46-6.24,18.82-11.69,30.72-16.21.04-.02.09-.03.13-.05,2.07-.79,4.19-1.54,6.35-2.28.01,0,3.27-1.33,3.28-1.33,0,0,.02,0,.02,0,1.31-.74,2.6-1.46,3.91-2.2,21.71-17.74,25.58-45.18,25.95-59.95,0-.03,0-.06,0-.09.15-6.22-.31-10.17-.31-10.17,1.81.64,3.57,1.37,5.28,2.19,11.24,5.33,20.44,14.26,26.48,25.27,0,0,0,0,0,0,.61,1.12,1.19,2.25,1.73,3.41,4.74,8.85,10.42,16.02,17.86,22.72.88.79,1.8,1.53,2.73,2.26.45.36.91.71,1.37,1.05,2.02,1.51,4.11,2.9,6.28,4.15h0c.12.07.26.15.38.22.04.03.08.05.12.07.83.48,1.68.94,2.53,1.37,1.61.83,3.35,1.38,5.15,1.59h.04c.32.04.63.07.94.08.47.03.94.03,1.41.02,1.79-.05,3.54-.39,5.22-1,.1-.03.19-.07.29-.11,4.24-1.61,7.96-4.87,10.56-9.2.19-.31.37-.63.54-.95,1.33-3.35,2.34-7.08,2.97-11.04-2.48,3.15-5.28,5.88-8.31,8.1-4.53,3.32-9.58,5.49-14.87,6.23-1.12.15-2.25.25-3.39.27-.13-.11-.26-.21-.39-.33t0,0c-1.92-1.6-3.52-3.36-4.75-5.22,2.49-.18,4.94-.6,7.32-1.25,2.57-.7,5.06-1.67,7.44-2.88,6.42-3.25,12.07-8.24,16.41-14.49.42-.6.82-1.2,1.21-1.82,1.3-2.07,2.47-4.26,3.48-6.56.11-.24.21-.49.32-.74,1.61-3.84,2.79-7.97,3.45-12.32.69,4.42.64,9.15.28,14.01Z"/>
  <g>
    <path class="cls-1" d="m87.24,212.11h-6.69l-14.29,28.8-7.01-28.8h-7.04l-10.51,41.33h7.42l6.6-25.96,6.3,25.96h5.92l12.27-24.73.34,24.73h7.25l-.56-41.33Z"/>
    <path class="cls-1" d="m121.68,212.11h-6.55l-22.32,41.33h8.35l15.89-29.71,5.21,20.92,2.19,8.79h7.53l-10.3-41.33Z"/>
    <path class="cls-1" d="m169.15,212.11l-3.84,28.1-14.9-28.1h-6.77l-5.59,41.33h7.45l3.88-28.41,15.1,28.41h6.63l5.62-41.33h-7.57Z"/>
    <path class="cls-1" d="m180.84,212.11l-.96,7.36h8.97l-4.64,33.97h7.71l4.64-33.97h8.61l.9-7.36h-25.23Z"/>
    <path class="cls-1" d="m230.98,212.11h-6.55l-22.33,41.33h8.35l15.89-29.71,7.41,29.71h7.52l-10.3-41.33Z"/>
    <path class="cls-1" d="m275.07,228.13c1.17-1.91,1.76-3.98,1.76-6.21,0-2.04-.5-3.84-1.49-5.38-1-1.54-2.29-2.67-3.89-3.37-1.6-.7-4.24-1.05-7.93-1.05h-10.38l-5.59,41.33h4.17l2.65-19.55h3.27l12.45,19.55h4.7l-12.48-19.55c3.3,0,5.96-.48,7.98-1.45,2.02-.97,3.62-2.4,4.79-4.31Zm-15.41,1.71h-4.75l1.86-13.74h7.08c3.11,0,5.26.39,6.46,1.15,1.55.97,2.33,2.53,2.33,4.68,0,1.91-.56,3.52-1.67,4.84-1.12,1.32-2.58,2.2-4.4,2.65-1.09.28-3.39.42-6.91.42Z"/>
    <path class="cls-1" d="m302.92,220.78l5.1,15.24,1.31,3.9,4.52,13.51h4.24l-13.86-41.33h-.96l-23.81,41.33h4.61"/>
    <path class="cls-1" d="m353.27,212.11l-14.91,18.75-8.84-18.75h-4.34l10.74,22.79-2.51,18.54h4.05l2.51-18.36,18.31-22.97h-5.02Z"/>
  </g>
</svg>